<?xml version="1.0"?>
<svg width="2560" height="626" xmlns="http://www.w3.org/2000/svg" xmlns:svg="http://www.w3.org/2000/svg">
 <defs>
  <clipPath id="clip0">
   <rect fill="white" height="626" id="svg_1" width="2560"/>
  </clipPath>
 </defs>
 <g class="layer">
  <title>Layer 1</title>
  <g clip-path="url(#clip0)" id="svg_2" opacity="0.3">
   <path d="m2107.5,743.69c-278.6,-220.6 -407.3,-300 -638,-159.1c-261.9,-168 -360.9,-111.5 -642,63.7c-140.5,-137.3 -194.4,-194.3 -259.5,-108.4c-160.3,-186.7 -248.4,-247.8 -382.7,-85.2c-14.56,17.59 -33.87,30.62 -55.62,37.53c-21.76,6.92 -45.04,7.43 -67.08,1.47c-202.2,-54.9 -396.5,175 -515.1,250l2560,0z" fill="#add2f7" id="svg_3"/>
   <path d="m1913.9,597.09c-4,-3.5 -10.2,-5.3 -17.6,-5.3c-6.28,0.1 -12.51,1.11 -18.5,3l-4,1.3c0.12,-2.9 -0.22,-5.8 -1,-8.6c-2.2,-8.8 -8,-16 -16.7,-20.9c-13,-7.4 -31.3,-8.6 -48.8,-3.3c-3.42,1.02 -6.77,2.29 -10,3.8c-1.5,-4.86 -3.58,-9.53 -6.2,-13.9c-15.7,-26.4 -48.3,-41.9 -72.7,-34.5c-10.4,3.1 -18.2,10.2 -21.9,19.8c-4.8,12.4 -2.7,27.7 5.9,42.1c12.7,21.5 37.1,36.3 59.5,36.4c0.2,1.3 0.4,2.6 0.7,3.8c0.65,2.4 1.55,4.71 2.7,6.9l2.3,0c-1.35,-2.31 -2.36,-4.8 -3,-7.4c-0.37,-1.44 -0.64,-2.91 -0.8,-4.4c-0.02,-0.24 -0.14,-0.47 -0.33,-0.64c-0.18,-0.17 -0.42,-0.26 -0.67,-0.26l-0.7,0c-21.8,0 -45.6,-14.5 -58,-35.4c-8.2,-13.9 -10.3,-28.6 -5.8,-40.4c3.5,-9 10.9,-15.6 20.7,-18.6c23.5,-7.1 55.1,8 70.4,33.6c2.7,4.59 4.82,9.49 6.3,14.6c0.12,0.27 0.33,0.48 0.6,0.6c0.26,0.11 0.54,0.11 0.8,0c3.48,-1.69 7.09,-3.09 10.8,-4.2c17,-5.1 34.6,-4 47.2,3.1c8.2,4.7 13.7,11.5 15.8,19.7c0.82,3.1 1.09,6.31 0.8,9.5c0.01,0.34 0.15,0.67 0.4,0.9c0.14,0.12 0.31,0.19 0.48,0.21c0.18,0.02 0.36,-0.02 0.52,-0.11l5.3,-1.8c14.6,-4.4 27.7,-3.7 34.2,1.9c3.5,2.9 4.9,7 4.2,11.8c-0.7,4.8 -4,11.6 -9.1,17.3l2.6,0c4.7,-5.6 7.8,-11.5 8.5,-17c0.7,-5.5 -0.9,-10.3 -4.9,-13.6z" fill="#add2f7" id="svg_4"/>
   <path d="m-410.6,351.97c87.3,-44 149,-9.9 149,-9.9c43.2,-13.4 81.2,-4 100.9,11.3c12.2,9.6 -15.2,7.9 -76.7,7.9l-170.9,0c-1.3,0 -2.55,-0.52 -3.46,-1.43c-0.92,-0.92 -1.44,-2.17 -1.44,-3.47c0.01,-0.9 0.25,-1.78 0.71,-2.55c0.46,-0.77 1.11,-1.41 1.89,-1.85z" fill="#add2f7" id="svg_5"/>
   <path d="m363,193.97c22.1,-11.2 37.7,-2.5 37.7,-2.5c10.9,-3.4 20.6,-1 25.5,2.8c3.1,2.5 -3.8,2 -19.4,2l-43.3,0c-0.32,0 -0.62,-0.13 -0.85,-0.35c-0.22,-0.23 -0.35,-0.53 -0.35,-0.85c0,-0.23 0.06,-0.46 0.19,-0.65c0.12,-0.2 0.3,-0.35 0.51,-0.45z" fill="#add2f7" id="svg_6"/>
   <path d="m1969.6,214.17c-0.14,-8.68 -3.29,-17.05 -8.91,-23.66c-5.62,-6.62 -13.36,-11.09 -21.91,-12.63c-8.54,-1.55 -17.36,-0.08 -24.94,4.15c-7.58,4.23 -13.47,10.96 -16.64,19.04c-2.79,-0.61 -5.64,-0.91 -8.5,-0.9c-5.74,-0.02 -11.41,1.23 -16.61,3.65c-5.2,2.42 -9.81,5.95 -13.49,10.35l111,0z" fill="#add2f7" id="svg_7"/>
   <path d="m-39.5,211.77c-6,0 -11.91,1.46 -17.22,4.25c-5.31,2.78 -9.87,6.82 -13.28,11.75c-13.35,-6.08 -28.16,-8.2 -42.68,-6.11c-14.52,2.09 -28.13,8.31 -39.22,17.91l148.3,0c-2.08,-7.95 -6.72,-14.98 -13.22,-20.01c-6.49,-5.03 -14.47,-7.77 -22.68,-7.79z" fill="#add2f7" id="svg_8"/>
   <path d="m1713.1,285.17c2.51,0.03 5,-0.5 7.28,-1.55c2.28,-1.05 4.3,-2.59 5.92,-4.51c1.61,-1.92 2.78,-4.18 3.42,-6.6c0.64,-2.43 0.74,-4.97 0.28,-7.44c-4.79,-25.84 -17.87,-49.43 -37.24,-67.19c-19.38,-17.76 -44.01,-28.73 -70.17,-31.26c-26.17,-2.53 -52.44,3.52 -74.86,17.24c-22.42,13.72 -39.77,34.36 -49.43,58.81c-8.94,-1.93 -18.06,-2.9 -27.2,-2.9c-17.57,-0.03 -34.96,3.61 -51.04,10.69c-16.08,7.08 -30.51,17.43 -42.36,30.41c-0.32,0.37 -0.53,0.83 -0.6,1.32c-0.08,0.48 -0.01,0.98 0.19,1.43c0.2,0.45 0.52,0.84 0.93,1.11c0.41,0.27 0.89,0.43 1.38,0.44l333.5,0z" fill="#add2f7" id="svg_9"/>
   <path d="m1268.1,627.07l-2,0c0.8,-22.6 -3.4,-37.3 -12.9,-44.8c-9.5,-7.5 -25.4,-8 -47.7,-1.1c-0.27,0.07 -0.56,0.03 -0.8,-0.1c-0.25,-0.16 -0.43,-0.41 -0.5,-0.7c-0.62,-4.02 -2.27,-7.81 -4.8,-11c-2.52,-3.19 -5.83,-5.67 -9.6,-7.2c-9.6,-3.9 -21.5,-1.7 -31.7,5.8c-24.8,18.1 -22.1,50.5 -22.1,50.8c0,0.21 -0.05,0.41 -0.16,0.59c-0.1,0.17 -0.26,0.32 -0.44,0.41c-0.18,0.1 -0.38,0.13 -0.58,0.09c-0.2,-0.04 -0.39,-0.14 -0.52,-0.29c-12.9,-11.5 -21.9,-16 -29.2,-14.7c-7.3,1.3 -13.9,9.1 -21.4,22.2l-2.3,0c8.1,-14.2 14.7,-22.7 23.3,-24.2c8.6,-1.5 16.7,2.9 29.2,13.7c-0.1,-8 1.3,-34.3 23,-50.2c10.8,-7.9 23.4,-10.2 33.6,-6c3.93,1.53 7.41,4.03 10.12,7.27c2.71,3.23 4.56,7.09 5.38,11.23c22.4,-6.7 38.2,-6.1 48.4,1.9c10.2,8 14.5,23 13.7,46.3z" fill="#add2f7" id="svg_10"/>
   <path d="m144,277.57c-1.57,-0.98 -2.9,-2.3 -3.9,-3.85c-1.01,-1.56 -1.65,-3.32 -1.9,-5.15l-1,-6.4c-0.02,-0.14 -0.1,-0.27 -0.21,-0.36c-0.11,-0.09 -0.25,-0.14 -0.39,-0.14c-0.14,0 -0.28,0.05 -0.39,0.14c-0.11,0.09 -0.19,0.22 -0.21,0.36l-1,6.4c-0.27,1.83 -0.92,3.58 -1.92,5.13c-1,1.55 -2.33,2.87 -3.88,3.87l-0.8,0.5c-0.1,0.04 -0.18,0.11 -0.23,0.2c-0.05,0.09 -0.08,0.2 -0.07,0.3c-0.01,0.1 0.02,0.21 0.07,0.3c0.05,0.09 0.13,0.16 0.23,0.2l0.8,0.5c1.55,1.03 2.87,2.37 3.86,3.94c1,1.56 1.66,3.32 1.94,5.16l1,6.3c0.02,0.14 0.1,0.27 0.21,0.36c0.11,0.09 0.25,0.14 0.39,0.14c0.14,0 0.28,-0.05 0.39,-0.14c0.11,-0.09 0.19,-0.22 0.21,-0.36l1,-6.3c0.26,-1.84 0.91,-3.61 1.91,-5.18c1,-1.57 2.33,-2.91 3.89,-3.92l0.8,-0.5c0.1,-0.04 0.18,-0.11 0.23,-0.2c0.05,-0.09 0.08,-0.2 0.07,-0.3c0.01,-0.1 -0.02,-0.21 -0.07,-0.3c-0.05,-0.09 -0.13,-0.16 -0.23,-0.2l-0.8,-0.5z" fill="#add2f7" id="svg_11"/>
   <path d="m1239.6,178.77c-2.65,-1.72 -4.9,-3.98 -6.61,-6.63c-1.71,-2.66 -2.83,-5.65 -3.29,-8.77l-1.6,-10.8c-0.06,-0.25 -0.2,-0.47 -0.4,-0.63c-0.2,-0.16 -0.45,-0.26 -0.7,-0.27c-0.26,0 -0.51,0.08 -0.72,0.25c-0.2,0.16 -0.33,0.39 -0.38,0.65l-1.6,10.8c-0.48,3.13 -1.62,6.12 -3.34,8.78c-1.73,2.65 -4,4.91 -6.66,6.62l-1.4,0.9c-0.15,0.1 -0.27,0.24 -0.35,0.39c-0.09,0.16 -0.14,0.33 -0.15,0.51c0,0.18 0.05,0.35 0.14,0.51c0.08,0.16 0.21,0.29 0.36,0.39l1.4,0.9c2.67,1.73 4.94,4.01 6.66,6.68c1.72,2.67 2.86,5.68 3.34,8.82l1.6,10.8c0.05,0.26 0.18,0.49 0.38,0.65c0.21,0.17 0.46,0.25 0.72,0.25c0.25,-0.01 0.5,-0.11 0.7,-0.27c0.2,-0.16 0.34,-0.38 0.4,-0.63l1.6,-10.8c0.46,-3.14 1.58,-6.14 3.29,-8.81c1.7,-2.67 3.96,-4.95 6.61,-6.69l1.5,-0.9c0.14,-0.1 0.25,-0.24 0.32,-0.4c0.07,-0.15 0.1,-0.33 0.08,-0.5c0.01,-0.17 -0.02,-0.34 -0.09,-0.5c-0.07,-0.15 -0.18,-0.29 -0.31,-0.4l-1.5,-0.9z" fill="#add2f7" id="svg_12"/>
   <path d="m1731.2,411.77c-2.15,-1.4 -3.97,-3.23 -5.35,-5.39c-1.38,-2.15 -2.28,-4.58 -2.65,-7.11l-1.4,-8.7c0,-0.21 -0.08,-0.42 -0.23,-0.57c-0.15,-0.15 -0.36,-0.23 -0.57,-0.23c-0.22,0 -0.44,0.08 -0.6,0.23c-0.17,0.15 -0.28,0.35 -0.3,0.57l-1.3,8.7c-0.39,2.54 -1.31,4.97 -2.7,7.12c-1.4,2.16 -3.24,3.99 -5.4,5.38l-1.1,0.7c-0.11,0.08 -0.21,0.19 -0.27,0.31c-0.07,0.12 -0.12,0.25 -0.13,0.39c0,0.14 0.03,0.28 0.11,0.4c0.07,0.13 0.17,0.23 0.29,0.3l1.1,0.7c2.15,1.4 3.98,3.23 5.38,5.39c1.39,2.15 2.32,4.58 2.72,7.11l1.3,8.7c0.02,0.22 0.13,0.42 0.3,0.57c0.16,0.15 0.38,0.23 0.6,0.23c0.21,0 0.42,-0.08 0.57,-0.23c0.15,-0.15 0.23,-0.36 0.23,-0.57l1.4,-8.7c0.38,-2.53 1.29,-4.95 2.67,-7.1c1.38,-2.16 3.19,-3.99 5.33,-5.4l1.1,-0.7c0.13,-0.06 0.24,-0.16 0.31,-0.29c0.07,-0.12 0.1,-0.27 0.09,-0.41c0,-0.14 -0.04,-0.28 -0.11,-0.4c-0.07,-0.13 -0.17,-0.23 -0.29,-0.3l-1.1,-0.7z" fill="#add2f7" id="svg_13"/>
   <path d="m448.4,415.37c-0.81,-0.52 -1.5,-1.21 -2.02,-2.02c-0.52,-0.81 -0.85,-1.73 -0.98,-2.68l-0.5,-3.2c0,-0.08 -0.03,-0.16 -0.09,-0.21c-0.05,-0.06 -0.13,-0.09 -0.21,-0.09c-0.08,0 -0.16,0.03 -0.21,0.09c-0.06,0.05 -0.09,0.13 -0.09,0.21l-0.5,3.2c-0.13,0.95 -0.46,1.87 -0.98,2.68c-0.52,0.81 -1.21,1.5 -2.02,2.02l-0.5,0.3c-0.1,0 -0.1,0.2 -0.1,0.3c0,0.05 0,0.11 0.02,0.16c0.02,0.05 0.04,0.1 0.08,0.14l0.5,0.2c0.79,0.54 1.46,1.24 1.98,2.04c0.52,0.81 0.86,1.72 1.02,2.66l0.5,3.3c0,0.08 0.03,0.16 0.09,0.21c0.05,0.06 0.13,0.09 0.21,0.09c0.08,0 0.16,-0.03 0.21,-0.09c0.06,-0.05 0.09,-0.13 0.09,-0.21l0.5,-3.3c0.16,-0.94 0.5,-1.85 1.02,-2.66c0.51,-0.8 1.19,-1.5 1.98,-2.04l0.5,-0.2c0.04,-0.04 0.06,-0.09 0.08,-0.14c0.02,-0.05 0.02,-0.11 0.02,-0.16c0,-0.1 0,-0.3 -0.1,-0.3l-0.5,-0.3z" fill="#add2f7" id="svg_14"/>
   <path d="m490.6,543.67c-0.42,-0.25 -0.77,-0.58 -1.05,-0.98c-0.27,-0.39 -0.46,-0.85 -0.55,-1.32l-0.2,-1.7l-0.3,0l-0.3,1.7c-0.07,0.47 -0.24,0.92 -0.5,1.31c-0.26,0.4 -0.6,0.74 -1,0.99l-0.2,0.2c-0.03,0 -0.05,0.01 -0.07,0.03c-0.02,0.02 -0.03,0.04 -0.03,0.07c0,0.03 0.01,0.05 0.03,0.07c0.02,0.02 0.04,0.03 0.07,0.03l0.2,0.2c0.4,0.25 0.74,0.59 1,0.99c0.26,0.39 0.43,0.84 0.5,1.31l0.3,1.7l0.3,0l0.2,-1.7c0.09,-0.48 0.28,-0.93 0.55,-1.32c0.28,-0.4 0.63,-0.73 1.05,-0.98l0.2,-0.2l-0.2,-0.4z" fill="#add2f7" id="svg_15"/>
   <path d="m913.3,534.27c-0.9,-0.61 -1.66,-1.39 -2.24,-2.3c-0.59,-0.91 -0.98,-1.93 -1.16,-3l-0.5,-3.6c0,-0.2 -0.2,-0.3 -0.4,-0.3c-0.04,0 -0.08,0.01 -0.12,0.02c-0.03,0.02 -0.06,0.04 -0.09,0.07c-0.03,0.03 -0.05,0.06 -0.07,0.1c-0.01,0.03 -0.02,0.07 -0.02,0.11l-0.6,3.6c-0.14,1.07 -0.5,2.09 -1.07,3.01c-0.57,0.91 -1.33,1.7 -2.23,2.29l-0.5,0.3c-0.1,0 -0.2,0.1 -0.2,0.3c0,0.1 0.1,0.2 0.2,0.3l0.5,0.3c0.88,0.59 1.63,1.35 2.2,2.25c0.57,0.9 0.94,1.9 1.1,2.95l0.6,3.6c0,0.08 0.03,0.16 0.09,0.21c0.05,0.06 0.13,0.09 0.21,0.09c0.2,0 0.4,-0.1 0.4,-0.3l0.5,-3.6c0.19,-1.05 0.59,-2.05 1.17,-2.94c0.59,-0.9 1.34,-1.66 2.23,-2.26l0.5,-0.3c0.04,-0.04 0.06,-0.09 0.08,-0.14c0.02,-0.05 0.02,-0.11 0.02,-0.16c0,-0.2 0,-0.3 -0.1,-0.3l-0.5,-0.3z" fill="#add2f7" id="svg_16"/>
   <path d="m-122.4,510.67c-0.96,-0.65 -1.78,-1.49 -2.4,-2.47c-0.62,-0.98 -1.03,-2.08 -1.2,-3.23l-0.6,-4c-0.1,-0.2 -0.2,-0.4 -0.4,-0.4c-0.11,0 -0.21,0.04 -0.28,0.12c-0.08,0.07 -0.12,0.17 -0.12,0.28l-0.6,4c-0.19,1.15 -0.62,2.26 -1.26,3.24c-0.63,0.98 -1.47,1.82 -2.44,2.46l-0.6,0.3c-0.1,0.1 -0.1,0.2 -0.1,0.4c0,0.1 0,0.3 0.1,0.3l0.6,0.4c0.98,0.64 1.82,1.47 2.46,2.45c0.64,0.99 1.06,2.09 1.24,3.25l0.6,4c0,0.2 0.2,0.3 0.4,0.3c0.2,0 0.3,-0.1 0.4,-0.3l0.6,-4c0.16,-1.15 0.57,-2.25 1.19,-3.24c0.62,-0.98 1.44,-1.82 2.41,-2.46l0.6,-0.4c0.1,0 0.2,-0.2 0.2,-0.3c0,-0.08 -0.02,-0.15 -0.05,-0.22c-0.04,-0.07 -0.09,-0.13 -0.15,-0.18l-0.6,-0.3z" fill="#add2f7" id="svg_17"/>
  </g>
 </g>
</svg>